PathFileType	4	(X/Y/Z)	C:/Users/opensim2020/Desktop/walking_exp_matlab/subject02_walking09_straight_01.trc	
DataRate	CameraRate	NumFrames	NumMarkers	Units	OrigDataRate	OrigDataStartFrame	OrigNumFrames	
100.00	100.00	7	42	mm	100.00	672	293	
Frame#	Time	LFHD			RFHD			LBHD			RBHD			C7			T10			CLAV			STRN			RBAK			LSHO			LUPA			LELB			LFRM			LWRA			LWRB			LFIN			RSHO			RUPA			RELB			RFRM			RWRA			RWRB			RFIN			LASI			RASI			LPSI			RPSI			LTHI			LKNE			LTIB			LANK			LHEE			LTOE			RTHI			RKNE			RTIB			RANK			RHEE			RTOE			*39			*40			*41			
		X1	Y1	Z1	X2	Y2	Z2	X3	Y3	Z3	X4	Y4	Z4	X5	Y5	Z5	X6	Y6	Z6	X7	Y7	Z7	X8	Y8	Z8	X9	Y9	Z9	X10	Y10	Z10	X11	Y11	Z11	X12	Y12	Z12	X13	Y13	Z13	X14	Y14	Z14	X15	Y15	Z15	X16	Y16	Z16	X17	Y17	Z17	X18	Y18	Z18	X19	Y19	Z19	X20	Y20	Z20	X21	Y21	Z21	X22	Y22	Z22	X23	Y23	Z23	X24	Y24	Z24	X25	Y25	Z25	X26	Y26	Z26	X27	Y27	Z27	X28	Y28	Z28	X29	Y29	Z29	X30	Y30	Z30	X31	Y31	Z31	X32	Y32	Z32	X33	Y33	Z33	X34	Y34	Z34	X35	Y35	Z35	X36	Y36	Z36	X37	Y37	Z37	X38	Y38	Z38	X39	Y39	Z39	X40	Y40	Z40	X41	Y41	Z41	X42	Y42	Z42	

147	1.460	-1028.27942	-126.80980	1746.15479	-887.97076	-148.62964	1718.55811	-1063.17480	-233.32867	1644.81262	-927.04297	-265.33392	1613.43408	-997.33307	-279.74454	1508.78882	-993.46881	-327.15601	1234.26941	-1004.17297	-137.53209	1446.02490	-1002.64233	-81.61006	1274.08484	-940.67407	-335.52951	1332.78516	-1174.03003	-198.97673	1494.18420	-1264.77185	-184.70409	1299.11890	-1285.45239	-156.32886	1160.03845	-1294.10657	-95.28932	1040.57739	-1255.22339	4.83651	951.20898	-1290.26917	-35.75037	932.13153	-1289.59314	10.20924	883.94299	-808.78534	-207.89746	1468.58032	-733.09351	-250.60289	1278.76953	-721.38361	-249.46490	1132.23755	-700.19104	-234.55489	1013.86853	-715.68256	-197.59901	882.50989	-686.94348	-246.85135	884.70111	-683.45575	-218.60664	817.16089	-1132.34668	-104.77439	966.42767	-882.09210	-78.87393	975.09875	-1038.93347	-305.34030	1014.76819	-922.57605	-300.55484	1019.58850	-1192.14978	-217.06889	660.92090	-1180.04700	-269.76987	477.11716	-1173.88110	-419.18857	359.08640	-1151.51660	-543.87408	173.37418	-1093.78125	-577.11243	172.11339	-1172.59131	-468.23776	36.33490	-800.81531	-93.44031	674.56628	-844.04956	-52.99113	469.66937	-839.47607	-73.46311	281.39886	-875.32111	-73.47839	89.94424	-932.84064	-103.90263	37.25175	-857.55524	80.88349	38.46222	-957.07935	-255.13945	1781.04382	-3360.26392	2845.18359	1034.10461			 
148	1.470	-1025.80627	-118.02962	1747.76855	-885.45355	-139.99936	1720.36890	-1060.71582	-224.68024	1646.55676	-924.70453	-257.18747	1614.92786	-994.73883	-270.98459	1510.16663	-990.57147	-317.94806	1235.69690	-1001.97748	-128.64705	1447.96057	-1000.34680	-72.28188	1276.13135	-937.91895	-325.71149	1334.09412	-1171.63074	-190.92041	1495.87244	-1262.20178	-178.12903	1300.52124	-1282.05920	-151.98007	1160.88147	-1292.08093	-93.40257	1040.30652	-1253.45911	5.05421	948.47620	-1288.66406	-36.01150	930.63788	-1287.81775	8.64088	881.04077	-806.50757	-198.85754	1470.77368	-730.31104	-239.77943	1280.50000	-718.57214	-237.24030	1134.10388	-697.39014	-220.99219	1015.88031	-712.79492	-183.30424	884.84473	-683.83124	-232.31252	886.65558	-680.17267	-203.67821	819.11194	-1128.85022	-95.55624	968.02319	-879.42621	-69.47047	976.55280	-1036.30847	-296.30072	1016.70990	-919.78772	-290.85110	1021.52100	-1190.36401	-202.87877	660.62250	-1179.37512	-251.65749	477.27963	-1172.81812	-401.66132	361.64621	-1149.38782	-530.20618	179.90811	-1090.71606	-562.54572	179.19868	-1172.59326	-459.96964	40.91316	-799.53400	-86.74442	675.34296	-842.73291	-49.20298	469.84305	-838.19495	-71.52428	281.52927	-875.11639	-72.97198	89.98655	-932.73395	-103.99319	37.27540	-857.59583	80.92446	38.36895	-954.67737	-246.44966	1782.60022	-3360.38721	2845.14502	1034.06421			 
149	1.480	-1023.49780	-109.40943	1749.42444	-882.94971	-131.07259	1721.76819	-1058.57056	-216.04552	1648.23499	-922.50623	-248.51758	1616.70642	-992.21045	-262.24969	1511.60486	-987.81647	-308.83826	1237.12683	-999.85547	-119.85306	1449.82434	-998.29065	-63.08071	1278.08228	-935.03058	-316.34430	1335.45093	-1169.23450	-182.97861	1497.50098	-1259.66345	-171.68039	1301.84497	-1278.89063	-147.82347	1161.98657	-1289.67017	-91.79047	1040.03528	-1251.45276	4.80476	945.64185	-1287.29126	-36.60167	929.23663	-1286.31531	6.87768	878.23737	-804.33179	-189.56813	1472.63757	-727.78430	-228.44508	1282.44873	-715.76727	-225.15218	1135.94177	-694.54474	-207.52731	1017.77490	-709.69037	-167.94293	887.12744	-680.70026	-217.59012	888.47571	-677.03375	-188.06854	821.46436	-1126.15320	-86.69126	969.82806	-877.16382	-60.37870	977.76648	-1033.60571	-287.49799	1018.52338	-916.95587	-281.43246	1023.56525	-1188.89795	-188.80244	660.78564	-1178.62354	-233.38014	477.52725	-1171.89844	-383.87653	364.00070	-1145.97351	-516.33392	186.14233	-1087.10437	-547.65216	185.69763	-1173.60022	-448.32077	46.77999	-798.25067	-80.53149	676.00653	-841.53998	-45.42749	469.85422	-836.80731	-69.48083	281.69360	-874.98102	-72.99314	90.08208	-932.51971	-103.76935	37.07224	-857.59686	80.89199	38.32612	-952.15173	-237.73138	1784.08911						 
150	1.490	-1021.36340	-100.84332	1751.04443	-880.77045	-122.49469	1723.36194	-1056.41211	-207.46458	1649.81982	-920.39264	-239.91037	1618.15552	-989.81726	-253.65137	1512.89758	-985.01593	-299.81543	1238.60339	-997.91339	-111.02723	1451.56848	-996.28387	-54.05870	1279.84973	-932.12158	-307.50433	1336.81323	-1167.14343	-175.17599	1499.23364	-1256.95593	-165.42706	1303.09888	-1275.69666	-143.53705	1162.72290	-1287.11719	-90.32909	1039.93286	-1249.89868	4.65255	942.82483	-1286.02966	-37.19076	927.95294	-1284.83154	4.76963	875.47870	-802.26587	-180.14545	1474.58032	-725.24164	-218.14444	1284.26025	-713.02789	-212.96930	1137.62634	-691.77148	-194.07867	1019.90088	-707.11560	-152.92957	889.88843	-677.98053	-202.73203	890.30652	-673.92542	-172.35474	823.66895	-1124.15051	-78.15020	971.65369	-875.18256	-51.47592	978.69019	-1030.83643	-278.80566	1020.20209	-914.15692	-272.14090	1025.53613	-1187.50513	-174.93510	661.44769	-1177.82666	-215.00287	477.84552	-1170.66699	-366.23120	366.70209	-1141.97852	-501.41971	191.72823	-1082.47327	-531.46362	190.27820	-1175.03320	-433.83545	53.47090	-797.04089	-74.61758	676.44104	-840.55072	-41.98473	469.95877	-835.54279	-67.36900	281.83755	-874.74951	-72.85082	90.14753	-932.37427	-103.93320	37.05559	-857.58154	80.80743	38.25665	-950.19055	-229.16148	1785.85291						 
151	1.500	-1019.26721	-92.40723	1752.69836	-878.55524	-114.22498	1725.00806	-1054.88074	-199.02750	1651.54907	-918.59796	-231.24602	1619.45276	-987.34418	-244.85426	1514.52063	-982.26422	-290.97925	1240.13611	-996.11285	-102.22892	1453.26379	-994.57593	-45.21241	1281.55457	-928.99982	-297.37570	1338.13379	-1165.04492	-167.45769	1500.58496	-1254.79590	-159.26849	1304.40771	-1273.03711	-139.32848	1163.71741	-1285.05774	-88.77959	1039.62109	-1248.68152	4.19309	940.29755	-1284.79565	-37.73447	926.78137	-1283.53186	2.43517	872.77026	-800.37128	-170.70384	1476.41003	-722.94183	-207.33054	1285.74304	-710.16980	-200.64909	1139.27844	-688.99426	-180.44804	1021.41260	-704.20087	-137.76138	892.20325	-675.11798	-187.33234	892.15472	-671.03638	-156.17258	826.19720	-1122.74426	-70.03979	973.56439	-873.54266	-42.55263	979.40015	-1027.98523	-270.26462	1021.67090	-911.41345	-263.16046	1027.29407	-1186.35071	-161.26364	662.60522	-1177.03052	-196.60858	479.03333	-1168.45874	-348.69113	369.90262	-1137.68811	-485.28815	196.33281	-1077.34766	-514.36957	193.10661	-1176.10864	-417.57895	59.62899	-795.73004	-68.60631	677.08917	-839.47516	-39.00169	469.85532	-834.51141	-65.15009	281.86938	-874.45825	-72.68810	90.22431	-932.20990	-104.10177	37.12758	-857.51489	80.73553	38.24049	-947.91742	-220.81839	1787.22144						 
152	1.510	-1017.22620	-84.12946	1754.21008	-876.58124	-105.90935	1726.34363	-1052.51355	-190.34712	1652.87561	-916.64850	-222.66493	1621.13428	-984.98950	-236.12650	1516.08813	-979.58948	-282.16992	1241.71301	-994.43860	-93.44359	1454.86853	-992.96051	-36.50283	1283.09180	-926.07190	-288.46112	1339.99084	-1163.15796	-159.74455	1501.96814	-1252.98767	-153.15012	1305.65759	-1270.03271	-135.20461	1164.54968	-1283.08972	-87.38796	1039.53296	-1247.57349	3.60131	937.73511	-1283.89807	-38.83404	925.54840	-1282.16553	-0.21005	869.97595	-798.32098	-160.89006	1477.99646	-720.23480	-196.14101	1287.33850	-707.26147	-188.25270	1141.03503	-686.20190	-166.55504	1023.42371	-701.44507	-122.73283	894.46783	-672.33911	-172.03288	893.79706	-668.38354	-140.01363	828.29205	-1121.68945	-61.92673	975.46613	-872.03943	-33.75505	980.01953	-1025.13745	-261.78918	1023.03931	-908.72632	-254.46336	1028.95618	-1185.37268	-147.73279	664.05096	-1176.01599	-178.34306	480.43683	-1165.26953	-331.00345	373.01553	-1133.48279	-467.97623	199.87523	-1072.50549	-496.58115	195.17526	-1176.94629	-399.81638	64.98373	-794.23883	-62.88601	677.53027	-838.33813	-36.36633	469.65976	-833.68982	-63.08279	281.73270	-874.21307	-72.54510	90.20247	-932.05212	-104.23898	37.09617	-857.46918	80.64422	38.18612	-946.22119	-212.64790	1788.64771	-3356.81274	2845.89771	1034.01941			 
153	1.520	-1015.53400	-75.77391	1756.03467	-874.81842	-97.36416	1728.16541	-1051.19080	-181.99182	1654.52930	-914.93848	-214.16112	1622.49268	-982.82007	-227.34560	1517.68555	-976.93524	-273.55002	1243.33533	-992.85437	-84.73469	1456.40247	-991.58386	-27.91743	1284.54785	-923.02850	-279.60574	1341.74329	-1161.23352	-152.22118	1503.20313	-1250.71802	-147.35518	1306.57544	-1267.30798	-131.00319	1165.20752	-1281.30359	-86.07218	1039.47412	-1246.75256	2.87313	935.51807	-1282.58838	-39.93176	924.36987	-1281.35205	-2.89424	867.77429	-796.36920	-150.78262	1479.77942	-717.77802	-185.72052	1288.88208	-704.35504	-176.05209	1142.56531	-683.46210	-153.09215	1025.00452	-699.19427	-107.49158	896.77618	-669.63403	-156.31020	895.61432	-665.53558	-123.08784	830.71967	-1121.12598	-54.24316	977.48907	-870.64990	-25.08897	980.55444	-1022.28296	-253.42880	1024.33362	-906.11548	-245.90016	1030.37268	-1184.49487	-134.17044	665.73151	-1174.98157	-160.30914	482.12164	-1161.72864	-312.83054	375.57007	-1129.65527	-449.73962	202.39487	-1068.22461	-477.47662	196.01387	-1177.40051	-380.86026	69.53376	-792.93359	-57.30112	677.94214	-837.45544	-33.94785	469.41388	-833.12543	-61.39799	281.53012	-874.11072	-72.43266	90.16762	-932.08807	-104.80524	37.27875	-857.41766	80.60619	38.15274	-944.16534	-204.29616	1789.86047	-3357.02930	2845.92578	1033.97021			 
